<svg width="8" height="12" viewBox="0 0 8 12" fill="none" xmlns="http://www.w3.org/2000/svg">
<path d="M0.469889 0C0.213718 0 0 0.233132 0 0.51259V11.4874C0 11.7669 0.213718 12 0.469889 12H6.82757C7.08373 12 7.29745 11.7669 7.29745 11.4874V0.51259C7.29745 0.233132 7.08373 0 6.82757 0H0.469889ZM0.610483 0.691164H6.68709V9.90527H0.610492L0.610483 0.691164ZM3.64872 10.469C3.76323 10.469 3.88298 10.5231 3.96395 10.6114C4.04491 10.6997 4.09437 10.8302 4.09437 10.9551C4.09437 11.08 4.04491 11.2105 3.96395 11.2989C3.88298 11.3872 3.76323 11.4413 3.64872 11.4413C3.53422 11.4413 3.41461 11.3872 3.33364 11.2989C3.25267 11.2105 3.20308 11.08 3.20308 10.9551C3.20308 10.8302 3.25267 10.6997 3.33364 10.6114C3.41461 10.5231 3.53422 10.469 3.64872 10.469Z" fill="white"/>
</svg>
