<svg width="42" height="38" viewBox="0 0 42 38" fill="none" xmlns="http://www.w3.org/2000/svg">
<path d="M10.0043 8.70862C9.80263 8.70862 9.6391 8.87628 9.6391 9.08307V11.4635H17.2722V9.08298C17.2722 8.8762 17.1087 8.70862 16.907 8.70862H10.0043Z" fill="#2B486A"/>
<path d="M24.3986 8.70862C24.1969 8.70862 24.0334 8.87628 24.0334 9.08307V11.4635H31.6664V9.08307C31.6664 8.87628 31.503 8.7087 31.3013 8.7087H24.3986V8.70862Z" fill="#2B486A"/>
<path d="M7.19443 11.4388V9.08289C7.19443 7.49452 8.45481 6.20227 10.004 6.20227H16.9067C18.4559 6.20227 19.7163 7.49452 19.7163 9.08289V11.4388H21.5888V9.08289C21.5888 7.49452 22.8492 6.20227 24.3984 6.20227H31.3011C32.8503 6.20227 34.1107 7.49452 34.1107 9.08289V11.4388H36.0562C36.4357 11.4388 36.8063 11.4783 37.1646 11.5531V3.86591C37.1646 2.21179 35.8567 0.870819 34.2435 0.870819H7.06172C5.44838 0.870819 4.14056 2.21179 4.14056 3.86591V11.5531C4.49884 11.4784 4.86954 11.4388 5.24904 11.4388H7.19443Z" fill="#2B486A"/>
<path d="M39.791 19.2061H1.51451C0.678072 19.2061 0 19.9014 0 20.7589V30.9366C0 31.7941 0.678072 32.4894 1.51451 32.4894H39.791C40.6274 32.4894 41.3055 31.7941 41.3055 30.9366V20.7589C41.3055 19.9014 40.6274 19.2061 39.791 19.2061Z" fill="#2B486A"/>
<path d="M36.0563 13.945H5.2491C3.67562 13.945 2.37611 15.1444 2.17072 16.6999H39.1347C38.9293 15.1444 37.6298 13.945 36.0563 13.945Z" fill="#2B486A"/>
<path d="M1.51373 34.9955V35.8234C1.51373 36.5155 2.06095 37.0766 2.73595 37.0766C3.41096 37.0766 3.95818 36.5155 3.95818 35.8234V34.9956H1.51462C1.5143 34.9955 1.51406 34.9955 1.51373 34.9955Z" fill="#2B486A"/>
<path d="M37.3474 34.9955V35.8233C37.3474 36.5154 37.8946 37.0765 38.5696 37.0765C39.2446 37.0765 39.7919 36.5154 39.7919 35.8233V34.9955C39.7915 34.9955 39.7913 34.9955 39.791 34.9955H37.3474V34.9955Z" fill="#2B486A"/>
</svg>
