<svg width="42" height="45" viewBox="0 0 42 45" fill="none" xmlns="http://www.w3.org/2000/svg">
<path d="M39.2402 23.6124H38.5518V7.08373C38.5518 3.1483 35.7982 0 32.356 0C29.3089 0 27.1174 2.58316 26.8722 6.36807C25.2725 6.71377 24.0949 8.28898 24.0949 10.232C24.0949 10.7043 24.3702 11.0191 24.7833 11.0191H30.2907C30.7038 11.0191 30.9791 10.7043 30.9791 10.232C30.9791 8.31047 29.8276 6.74836 28.255 6.3796C28.4607 3.87853 29.7746 1.5741 32.356 1.5741C35.0409 1.5741 37.1749 4.01402 37.1749 7.08364V23.6124H16.4556C16.1442 21.7971 14.7713 20.4641 13.0801 20.4641C12.3917 19.5196 11.4279 18.8899 10.3265 18.8899C9.01848 18.8899 7.84813 19.7557 7.29736 21.015C6.74659 20.7002 6.12701 20.4641 5.50743 20.4641C3.81624 20.4641 2.44332 21.7971 2.13191 23.6124H2.06527C0.894926 23.6124 0 24.6355 0 25.9736C0 27.3117 0.894926 28.3348 2.06527 28.3348H2.8926L4.75013 36.7566C5.3009 39.1966 7.22846 40.9282 9.43145 40.9282H9.98222L9.08729 42.9747C8.88076 43.3682 9.01848 43.8405 9.36263 43.9978C9.43145 44.0765 9.56916 44.0765 9.63798 44.0765C9.91332 44.0765 10.1198 43.9191 10.2576 43.6829L11.4623 40.9282H30.5661L31.7364 43.6043C31.8741 43.9191 32.0807 44.0765 32.356 44.0765C32.4937 44.0765 32.5625 44.0765 32.6313 43.9191C32.9067 43.7616 33.0444 43.2894 32.9067 42.8959L32.0444 40.924C34.1757 40.8374 36.0189 39.1355 36.5554 36.8353L38.4302 28.3348H39.2402C40.4106 28.3348 41.3055 27.3117 41.3055 25.9736C41.3055 24.6356 40.4106 23.6124 39.2402 23.6124ZM29.5334 9.44498H25.6094C25.8848 8.50048 26.7109 7.87078 27.6059 7.87078C28.5009 7.87078 29.2581 8.50048 29.5334 9.44498ZM5.50743 22.0383C6.12701 22.0383 6.67778 22.3531 7.15965 22.9041C7.29736 23.1402 7.5727 23.2189 7.84804 23.1402C8.12339 23.0615 8.2611 22.8254 8.32992 22.5105C8.53644 21.3299 9.36255 20.4641 10.3952 20.4641C11.1525 20.4641 11.8409 20.8576 12.1851 21.6447C12.3228 21.9595 12.667 22.1169 12.9424 22.0383C13.0112 22.0383 13.0801 22.0383 13.1489 22.0383C14.0439 22.0383 14.8012 22.6679 15.0765 23.6124H3.57978C3.85521 22.6679 4.61242 22.0383 5.50743 22.0383ZM35.3162 36.3632C34.9031 38.0947 33.5263 39.3541 31.9429 39.3541H9.50027C7.91686 39.3541 6.54006 38.0948 6.12701 36.3632L4.33708 28.3349H36.9684L35.3162 36.3632ZM39.2402 26.7607H37.8633H3.44215H2.06527C1.65222 26.7607 1.37688 26.4459 1.37688 25.9737C1.37688 25.5014 1.65222 25.1866 2.06527 25.1866H2.75367H15.8337H39.2402C39.6533 25.1866 39.9286 25.5014 39.9286 25.9737C39.9286 26.4459 39.6533 26.7607 39.2402 26.7607Z" fill="#2B486A"/>
<path d="M24.7832 14.561C25.1962 14.561 25.4716 14.2462 25.4716 13.7739V13.3804C25.4716 12.9081 25.1962 12.5933 24.7832 12.5933C24.3701 12.5933 24.0948 12.9081 24.0948 13.3804V13.7739C24.0948 14.2462 24.3701 14.561 24.7832 14.561Z" fill="#2B486A"/>
<path d="M24.7832 18.1815C25.1962 18.1815 25.4716 17.7879 25.4716 17.3944V16.5286C25.4716 16.0564 25.1962 15.7416 24.7832 15.7416C24.3701 15.7416 24.0948 16.0564 24.0948 16.5286V17.3944C24.0948 17.8666 24.3701 18.1815 24.7832 18.1815Z" fill="#2B486A"/>
<path d="M24.7832 21.2511C25.1962 21.2511 25.4716 20.9363 25.4716 20.4641V20.0705C25.4716 19.5982 25.1962 19.2834 24.7832 19.2834C24.3701 19.2834 24.0948 19.5982 24.0948 20.0705V20.4641C24.0948 20.9362 24.3701 21.2511 24.7832 21.2511Z" fill="#2B486A"/>
<path d="M27.537 14.561C27.95 14.561 28.2254 14.2462 28.2254 13.7739V13.3804C28.2254 12.9081 27.95 12.5933 27.537 12.5933C27.1239 12.5933 26.8486 12.9081 26.8486 13.3804V13.7739C26.8486 14.2462 27.1239 14.561 27.537 14.561Z" fill="#2B486A"/>
<path d="M26.8486 17.3944C26.8486 17.8666 27.1239 18.1814 27.537 18.1814C27.95 18.1814 28.2254 17.7879 28.2254 17.3944V16.5286C28.2254 16.0563 27.95 15.7415 27.537 15.7415C27.1239 15.7415 26.8486 16.0563 26.8486 16.5286V17.3944Z" fill="#2B486A"/>
<path d="M26.8486 20.464C26.8486 20.9363 27.1239 21.2511 27.537 21.2511C27.95 21.2511 28.2254 20.9363 28.2254 20.464V20.0704C28.2254 19.5982 27.95 19.2834 27.537 19.2834C27.1239 19.2834 26.8486 19.5982 26.8486 20.0704V20.464Z" fill="#2B486A"/>
<path d="M30.2907 14.561C30.7038 14.561 30.9791 14.2462 30.9791 13.7739V13.3804C30.9791 12.9081 30.7038 12.5933 30.2907 12.5933C29.8776 12.5933 29.6023 12.9081 29.6023 13.3804V13.7739C29.6022 14.2462 29.8776 14.561 30.2907 14.561Z" fill="#2B486A"/>
<path d="M29.6022 17.3944C29.6022 17.8666 29.8776 18.1814 30.2906 18.1814C30.7037 18.1814 30.9791 17.788 30.9791 17.3944V16.5286C30.9791 16.0563 30.7038 15.7415 30.2907 15.7415C29.8777 15.7415 29.6023 16.0563 29.6023 16.5286V17.3944H29.6022Z" fill="#2B486A"/>
<path d="M29.6022 20.464C29.6022 20.9363 29.8776 21.2511 30.2906 21.2511C30.7037 21.2511 30.979 20.9363 30.979 20.464V20.0704C30.979 19.5982 30.7037 19.2834 30.2906 19.2834C29.8776 19.2834 29.6022 19.5982 29.6022 20.0704V20.464Z" fill="#2B486A"/>
</svg>
