<svg width="34" height="38" viewBox="-6 0 34 48" fill="none" xmlns="http://www.w3.org/2000/svg">
<path d="M7.69483 31.4635C5.89515 31.4453 4.59823 29.3626 5.72478 26.654C6.01228 25.9629 5.21379 24.3264 4.91211 22.7933L4.65609 22.6721L3.17567 30.1291C3.04767 30.7742 3.55724 31.3703 4.22404 31.3703C4.63803 31.3703 5.13475 31.3703 5.69084 31.3703V44.9744C5.69084 46.2173 6.72361 47.2249 7.99755 47.2249C9.27149 47.2249 10.3043 46.2173 10.3043 44.9744V31.7683C9.48175 31.7042 8.70216 31.4738 7.69483 31.4635Z" fill="#2B486A"/>
<path d="M10.8023 7.77364C13.0026 7.77364 14.7863 6.03345 14.7863 3.88682C14.7863 1.74019 13.0026 0 10.8023 0C8.60204 0 6.81836 1.74019 6.81836 3.88682C6.81836 6.03345 8.60204 7.77364 10.8023 7.77364Z" fill="#2B486A"/>
<path d="M7.58442 17.2125L8.00002 13.8976C8.00002 13.8976 6.58625 10.0055 6.28438 9.1745C4.80813 9.60912 4.12204 10.8358 3.59412 11.7803C3.04607 12.761 0.706273 16.3438 0.341628 16.8826C-0.350601 17.9054 0.0658526 19.1589 1.08113 19.6399L4.79168 21.3978C4.83479 20.4811 5.1463 19.6748 5.72309 18.9962C5.73104 18.9869 6.0902 18.5703 6.65735 18.1117C6.65735 18.1117 4.88622 17.2538 4.74308 17.1828C5.51255 15.9548 6.1438 14.9474 6.90987 13.7247L6.08944 16.5041L7.58442 17.2125Z" fill="#2B486A"/>
<path d="M7.81519 9.01282C8.41193 10.6557 8.81401 11.7627 9.48364 13.6063C10.4898 13.6063 11.1682 13.6063 12.068 13.6063C12.4779 12.4782 13.3749 10.0085 13.7365 9.01282C11.3054 9.01282 10.3148 9.01282 7.81519 9.01282Z" fill="#2B486A"/>
<path d="M11.3438 25.35C10.7018 22.999 11.8254 21.7918 10.898 19.1731C10.5794 18.2733 10.0484 17.9526 9.46037 17.9526C8.33713 17.9526 7.00533 19.1229 6.54642 19.6626C4.58517 21.9694 7.50044 25.1596 6.71584 27.0464C5.93125 28.9332 6.60731 30.4082 7.70559 30.4195C8.96232 30.4324 9.87361 30.7406 10.692 30.7406C11.128 30.7406 11.5377 30.6531 11.9591 30.3871C13.1719 29.6215 11.9858 27.701 11.3438 25.35Z" fill="#2B486A"/>
<path d="M32.9269 4.9531C33.1898 4.57373 32.9897 4.05408 32.5363 3.93694L30.9954 3.53912L28.5791 7.49881L29.7411 3.21528L24.5445 1.87362C24.0924 1.75685 23.6561 2.10956 23.6896 2.56456L24.5327 14.0182L24.2512 15.0558L20.1379 16.6919C19.5455 15.2373 18.9597 13.9147 18.5771 12.8286C17.8592 10.791 16.7503 9.5624 15.2724 9.16007C14.4312 11.476 13.5907 13.7897 13.5907 13.7897C13.5907 13.7897 14.1022 17.3883 15.5399 25.9051C15.6394 26.47 15.193 26.9819 14.6108 26.9819C14.1631 26.9819 13.6084 26.9819 12.9979 26.9819C13.2546 27.7211 13.4678 28.3734 13.5331 28.9879C13.7093 30.6459 12.6067 31.5202 11.3 31.7346V44.9743C11.3 46.2172 12.3328 47.2248 13.6068 47.2248C14.8807 47.2248 15.9135 46.2172 15.9135 44.9743V31.3702C16.4696 31.3702 16.9664 31.3702 17.3803 31.3702C18.0506 31.3702 18.5565 30.7734 18.4286 30.1291C16.464 20.1614 15.6669 15.9132 15.6669 15.9132C15.6669 15.9132 16.7204 18.4001 17.2324 19.7884C17.6039 20.7953 18.7592 21.2907 19.7669 20.89L23.0194 19.5964L21.9604 23.5003C21.8244 24.0019 22.1309 24.5161 22.645 24.6489C23.1593 24.7816 23.6862 24.4824 23.8223 23.9811L25.2525 18.7081L26.5939 18.1747C27.577 17.7836 28.049 16.689 27.6483 15.7299C27.4114 15.1634 26.9224 14.7729 26.3596 14.6271L26.4481 14.3007L32.9269 4.9531Z" fill="#2B486A"/>
</svg>
