<svg width="42" height="62" viewBox="0 0 42 62" fill="none" xmlns="http://www.w3.org/2000/svg">
<path d="M41.1456 26.4925C41.129 26.3234 41.1091 26.1553 41.087 25.9879C41.0864 25.9834 41.0859 25.9788 41.0852 25.9743C41.064 25.8143 41.0401 25.6553 41.0141 25.4971C41.0111 25.4792 41.0081 25.4612 41.0052 25.4432C40.9805 25.2966 40.954 25.1507 40.9252 25.0057C40.9177 24.9675 40.9095 24.9295 40.9017 24.8915C40.8813 24.7926 40.8599 24.6943 40.8377 24.5963C40.814 24.4914 40.7889 24.3871 40.7631 24.283C40.7527 24.2414 40.7424 24.1997 40.7317 24.1582C40.4065 22.8931 39.9236 21.6949 39.2907 20.5809C39.2772 20.5571 39.2636 20.5335 39.25 20.5098C39.1901 20.4058 39.1291 20.3024 39.0666 20.2C39.0273 20.1354 38.9877 20.0712 38.9475 20.0074C38.9171 19.9593 38.887 19.9111 38.856 19.8634C38.7903 19.7618 38.723 19.6616 38.655 19.5621C38.6285 19.5235 38.602 19.4849 38.5752 19.4466C38.5066 19.3487 38.4371 19.2517 38.3664 19.156C38.3522 19.1368 38.3389 19.117 38.3246 19.0978C38.322 19.0948 38.3191 19.0923 38.3164 19.0894C36.3979 16.527 33.6785 14.7714 30.6185 14.3779C28.8984 14.1419 27.1782 14.2993 25.5269 14.9285C18.027 17.682 11.3529 19.0193 4.95398 19.0193H4.12832C1.85774 19.0193 0 21.1433 0 23.7392V33.1791C0 35.7751 1.85774 37.899 4.12832 37.899H6.19248H7.77502C12.0992 37.899 16.6307 38.5625 21.4655 39.9252L17.5454 51.9015C16.3757 55.5201 18.027 59.6894 21.1921 61.0267C21.949 61.3414 22.637 61.4987 23.3939 61.4987C25.8709 61.4987 28.2791 59.7681 29.1048 56.9362L34.5742 40.4151C35.9294 39.6496 37.1575 38.5896 38.1871 37.2698C40.4575 34.2804 41.5584 30.5044 41.1456 26.4925ZM39.8383 26.7285C40.1135 29.7964 39.4254 32.8644 37.8429 35.303C36.2603 32.8644 35.5723 29.7964 35.8475 26.7285C36.0539 24.6045 36.7419 22.6379 37.8429 20.9072C38.9438 22.5592 39.6318 24.6045 39.8383 26.7285ZM4.12832 36.3257C2.61463 36.3257 1.37613 34.9097 1.37613 33.1791V23.7392C1.37613 22.0086 2.61463 20.5926 4.12832 20.5926H4.95398C5.1604 20.5926 5.36681 20.5926 5.50445 20.5926V36.3257H4.12832ZM25.4395 41.1794C25.5374 41.2135 25.6351 41.247 25.7332 41.2816C26.9029 41.675 28.0726 41.8323 29.2423 41.8323C29.3725 41.8323 29.5022 41.8291 29.6317 41.8244L28.0726 46.5522C27.6597 47.7322 26.4212 48.4402 25.3891 47.9682C24.7699 47.7322 24.3571 47.1816 24.1507 46.4736C24.013 46.0016 24.013 45.3722 24.2194 44.8216L25.4395 41.1794ZM27.935 56.3068C27.0406 59.1388 24.2195 60.6334 21.7425 59.5321C19.2655 58.5095 17.9583 55.2842 18.9215 52.4522L22.9081 40.3501C23.3162 40.4753 23.7265 40.6054 24.139 40.7403L22.981 44.271C22.637 45.2149 22.637 46.1589 22.8434 46.9456C23.1186 48.1255 23.8755 49.0695 24.9075 49.4629C25.3204 49.6203 25.7332 49.6989 26.146 49.6989C27.5909 49.6989 28.8982 48.6763 29.3799 47.1816L31.2276 41.6455C31.8113 41.5351 32.3842 41.3766 32.9421 41.1716L27.935 56.3068ZM34.0131 38.9975C33.9158 38.9958 33.8152 39.0215 33.7146 39.079C32.7713 39.5926 31.7984 39.9374 30.7964 40.1157C30.7406 40.1064 30.6815 40.1017 30.6183 40.1017C30.0679 40.1803 29.655 40.1803 29.2422 40.1803C28.1413 40.1803 27.1093 39.9443 26.146 39.6297C26.0083 39.6297 25.8019 39.551 25.5955 39.4723L25.3229 39.41C18.9999 37.3315 13.2303 36.3257 7.77502 36.3257H6.88058V20.5536C12.8426 20.3165 19.1173 18.9785 26.0085 16.4232C27.4534 15.8726 28.9671 15.7152 30.5496 15.9512C33.0181 16.2738 35.2515 17.6299 36.9259 19.6164C35.5617 21.6273 34.7247 23.9596 34.4715 26.4925C34.0802 30.1457 34.9876 33.7278 36.9579 36.57C36.0898 37.5709 35.0932 38.3886 34.0131 38.9975Z" fill="#2B486A"/>
<path d="M38.5653 3.62238H30.9612C30.581 3.62238 30.3275 3.91214 30.3275 4.34684C30.3275 4.78153 30.581 5.0713 30.9612 5.0713H38.5653C38.9455 5.0713 39.199 4.78153 39.199 4.34684C39.199 3.91214 38.9455 3.62238 38.5653 3.62238Z" fill="#2B486A"/>
<path d="M37.2979 7.24493H32.2285C31.8483 7.24493 31.5948 7.5347 31.5948 7.96939C31.5948 8.40409 31.8483 8.69385 32.2285 8.69385H37.2979C37.6782 8.69385 37.9316 8.40409 37.9316 7.96939C37.9316 7.5347 37.6782 7.24493 37.2979 7.24493Z" fill="#2B486A"/>
<path d="M32.2286 1.44892H37.298C37.6782 1.44892 37.9317 1.15915 37.9317 0.72446C37.9317 0.289767 37.6782 0 37.298 0H32.2286C31.8484 0 31.5949 0.289767 31.5949 0.72446C31.5949 1.15915 31.8484 1.44892 32.2286 1.44892Z" fill="#2B486A"/>
</svg>
