<svg width="31" height="32" viewBox="-3 0 31 42" fill="none" xmlns="http://www.w3.org/2000/svg">
<path d="M19.071 12.0788C19.071 11.638 19.4339 11.2805 19.8816 11.2805H20.8503C21.2979 11.2805 21.6608 11.638 21.6608 12.0788C21.6608 12.5197 21.2979 12.8772 20.8503 12.8772H19.8816C19.4339 12.8772 19.071 12.5197 19.071 12.0788ZM15.5001 12.8772H16.4689C16.9165 12.8772 17.2794 12.5197 17.2794 12.0788C17.2794 11.638 16.9165 11.2805 16.4689 11.2805H15.5001C15.0524 11.2805 14.6895 11.638 14.6895 12.0788C14.6895 12.5197 15.0523 12.8772 15.5001 12.8772ZM31 7.65424V40.2658C31 41.2221 30.21 42 29.239 42H1.76081C0.789876 42 0 41.2221 0 40.2658V7.65424C0 6.69798 0.789876 5.91993 1.76081 5.91993H2.17449C2.1058 5.70468 2.06881 5.47567 2.06881 5.23837C2.06881 4.67397 2.27834 4.15677 2.62465 3.75832C2.27834 3.35986 2.06881 2.84276 2.06881 2.27826C2.06871 1.02203 3.10641 0 4.38181 0H10.6719C11.9473 0 12.9849 1.02203 12.9849 2.27826C12.9849 2.51566 12.9479 2.74457 12.8793 2.95991H15.7744C17.0498 2.95991 18.0875 3.98194 18.0875 5.23817C18.0875 5.47557 18.0504 5.70458 17.9817 5.91993H29.239C30.21 5.91983 31 6.69788 31 7.65424ZM3.6898 2.27826C3.6898 2.65416 4.00024 2.95991 4.38181 2.95991H10.6719C11.0535 2.95991 11.3638 2.65416 11.3638 2.27826C11.3638 1.90236 11.0534 1.59661 10.6718 1.59661H4.38181C4.00024 1.59661 3.6898 1.90236 3.6898 2.27826ZM3.6898 5.23808C3.6898 5.61398 4.00024 5.91983 4.38181 5.91983H15.7743C16.1559 5.91983 16.4663 5.61408 16.4663 5.23828C16.4663 4.86227 16.1559 4.55642 15.7743 4.55642H4.38181C4.00024 4.55652 3.6898 4.86227 3.6898 5.23808ZM29.3789 7.65424C29.3789 7.5809 29.3135 7.51654 29.239 7.51654H1.76081C1.68502 7.51654 1.62109 7.5796 1.62109 7.65424V40.2658C1.62109 40.339 1.68644 40.4034 1.76081 40.4034H29.239C29.3136 40.4034 29.3789 40.339 29.3789 40.2658V7.65424ZM25.2319 11.2805H24.2631C23.8154 11.2805 23.4525 11.638 23.4525 12.0788C23.4525 12.5197 23.8154 12.8772 24.2631 12.8772H25.2319C25.6795 12.8772 26.0424 12.5197 26.0424 12.0788C26.0424 11.638 25.6795 11.2805 25.2319 11.2805ZM15.5 19.3381C15.0523 19.3381 14.6894 19.6957 14.6894 20.1364C14.6894 20.5773 15.0524 20.9347 15.5 20.9347C17.0783 20.9346 18.5733 21.5477 19.7098 22.6611C20.8511 23.7791 21.4795 25.2576 21.4795 26.824C21.4795 27.2649 21.8425 27.6223 22.2901 27.6223C22.7377 27.6223 23.1006 27.2649 23.1006 26.824C23.1006 24.8294 22.3024 22.949 20.853 21.5291C19.4107 20.1161 17.5096 19.338 15.5 19.3381ZM5.76794 12.8772H10.634C11.0817 12.8772 11.4446 12.5197 11.4446 12.0788C11.4446 11.638 11.0817 11.2805 10.634 11.2805H5.76794C5.32032 11.2805 4.95739 11.638 4.95739 12.0788C4.95739 12.5197 5.32021 12.8772 5.76794 12.8772ZM26.0424 26.8241C26.0424 32.5495 21.3132 37.2075 15.5001 37.2075C9.68682 37.2075 4.95739 32.5496 4.95739 26.8241C4.95739 21.0988 9.68682 16.4409 15.5001 16.4409C21.3131 16.4409 26.0424 21.0988 26.0424 26.8241ZM24.4213 26.8241C24.4213 21.9791 20.4192 18.0375 15.5001 18.0375C10.5807 18.0375 6.57848 21.9791 6.57848 26.8241C6.57848 31.6691 10.5807 35.6109 15.5001 35.6109C20.4192 35.6109 24.4213 31.6691 24.4213 26.8241ZM15.5001 32.7135C13.8862 32.7135 12.3132 32.0632 11.1845 30.9294C10.0807 29.8207 9.48966 28.3682 9.52026 26.8399C9.52907 26.3991 9.17344 26.0347 8.72582 26.026C8.27354 26.0182 7.90828 26.3677 7.89947 26.8085C7.86026 28.7692 8.61579 30.6297 10.027 32.0473C11.4587 33.4855 13.4535 34.3102 15.5002 34.3102C15.9478 34.3102 16.3107 33.9528 16.3107 33.5119C16.3107 33.0711 15.9477 32.7135 15.5001 32.7135Z" fill="#2B486A"/>
</svg>
