<svg width="41" height="35" viewBox="0 0 41 35" fill="none" xmlns="http://www.w3.org/2000/svg">
<path d="M36.1423 0H3.87239C2.8457 0.0012452 1.86138 0.468094 1.1354 1.29811C0.409422 2.12813 0.00108912 3.25351 0 4.42733V28.0398C0.00108912 29.2136 0.409422 30.339 1.1354 31.169C1.86138 31.999 2.8457 32.4658 3.87239 32.4671V33.9429C3.87239 34.1386 3.94039 34.3262 4.06142 34.4646C4.18246 34.603 4.34662 34.6808 4.51779 34.6808H10.9718C11.1429 34.6808 11.3071 34.603 11.4281 34.4646C11.5492 34.3262 11.6172 34.1386 11.6172 33.9429V32.4671H28.3975V33.9429C28.3975 34.1386 28.4655 34.3262 28.5866 34.4646C28.7076 34.603 28.8718 34.6808 29.0429 34.6808H35.4969C35.6681 34.6808 35.8322 34.603 35.9533 34.4646C36.0743 34.3262 36.1423 34.1386 36.1423 33.9429V32.4671C37.169 32.4658 38.1533 31.999 38.8793 31.169C39.6053 30.339 40.0136 29.2136 40.0147 28.0398V4.42733C40.0136 3.25351 39.6053 2.12813 38.8793 1.29811C38.1533 0.468094 37.169 0.0012452 36.1423 0ZM10.3264 33.205H5.16319V32.4671H10.3264V33.205ZM34.8515 33.205H29.6883V32.4671H34.8515V33.205ZM38.7239 28.0398C38.723 28.8222 38.4507 29.5724 37.9668 30.1257C37.4828 30.679 36.8267 30.9903 36.1423 30.9913H3.87239C3.18798 30.9903 2.53187 30.679 2.04792 30.1257C1.56397 29.5724 1.29169 28.8222 1.2908 28.0398V4.42733C1.29157 3.6448 1.5638 2.89457 2.04778 2.34124C2.53175 1.7879 3.18795 1.47666 3.87239 1.47578H36.1423C36.8268 1.47666 37.4829 1.7879 37.9669 2.34124C38.4509 2.89457 38.7231 3.6448 38.7239 4.42733V28.0398Z" fill="#2B486A"/>
<path d="M34.2061 2.95154H5.80854C4.95295 2.95251 4.13264 3.34154 3.52765 4.03323C2.92266 4.72492 2.5824 5.66278 2.58154 6.64098V25.8261C2.5824 26.8043 2.92266 27.7421 3.52765 28.4338C4.13264 29.1255 4.95295 29.5145 5.80854 29.5155H34.2061C35.0617 29.5145 35.882 29.1255 36.4869 28.4338C37.0919 27.7421 37.4322 26.8043 37.4331 25.8261V6.64098C37.4322 5.66278 37.0919 4.72492 36.4869 4.03323C35.882 3.34154 35.0617 2.95251 34.2061 2.95154ZM36.1423 25.8261C36.1416 26.4129 35.9374 26.9755 35.5744 27.3905C35.2114 27.8055 34.7194 28.039 34.2061 28.0397H5.80854C5.29523 28.039 4.80315 27.8055 4.44019 27.3905C4.07723 26.9755 3.87302 26.4129 3.87234 25.8261V6.64098C3.87302 6.05412 4.07723 5.49152 4.44019 5.07655C4.80315 4.66157 5.29523 4.4281 5.80854 4.42731H34.2061C34.7194 4.4281 35.2114 4.66157 35.5744 5.07655C35.9374 5.49152 36.1416 6.05412 36.1423 6.64098V25.8261Z" fill="#2B486A"/>
<path d="M31.7338 14.2005L32.2375 13.6247C32.3585 13.4863 32.4265 13.2986 32.4265 13.1029C32.4265 12.9072 32.3585 12.7195 32.2375 12.581C32.1164 12.4426 31.9523 12.3649 31.7811 12.3649C31.6099 12.3649 31.4457 12.4426 31.3246 12.581L30.821 13.1568C30.4773 12.8957 30.0926 12.7128 29.6882 12.6184V11.8062C29.6882 11.6105 29.6202 11.4228 29.4992 11.2845C29.3781 11.1461 29.214 11.0683 29.0428 11.0683C28.8716 11.0683 28.7075 11.1461 28.5864 11.2845C28.4654 11.4228 28.3974 11.6105 28.3974 11.8062V12.6184C27.993 12.7129 27.6084 12.8957 27.2646 13.1569L26.761 12.5811C26.7011 12.5126 26.6299 12.4582 26.5516 12.4211C26.4733 12.384 26.3893 12.3649 26.3046 12.3649C26.2198 12.3649 26.1359 12.384 26.0576 12.4211C25.9792 12.4582 25.9081 12.5125 25.8481 12.581C25.7882 12.6496 25.7406 12.7309 25.7082 12.8205C25.6758 12.91 25.6591 13.006 25.659 13.1029C25.659 13.1998 25.6757 13.2958 25.7082 13.3853C25.7406 13.4748 25.7882 13.5562 25.8481 13.6247L26.3517 14.2005C26.1233 14.5935 25.9634 15.0333 25.8808 15.4956H25.1704C24.9993 15.4956 24.8351 15.5734 24.7141 15.7118C24.593 15.8502 24.525 16.0378 24.525 16.2335C24.525 16.4292 24.593 16.6169 24.7141 16.7553C24.8351 16.8937 24.9993 16.9714 25.1704 16.9714H25.8808C25.9634 17.4338 26.1234 17.8735 26.3518 18.2666L25.8482 18.8423C25.7882 18.9109 25.7407 18.9922 25.7082 19.0818C25.6758 19.1713 25.6591 19.2673 25.6591 19.3642C25.6591 19.5599 25.7271 19.7476 25.8481 19.886C25.9692 20.0244 26.1334 20.1022 26.3046 20.1022C26.4758 20.1022 26.6399 20.0245 26.761 19.8861L27.2646 19.3102C27.6083 19.5716 27.993 19.7545 28.3974 19.8492V20.6609C28.3974 20.8566 28.4654 21.0442 28.5864 21.1826C28.7075 21.321 28.8716 21.3987 29.0428 21.3987C29.214 21.3987 29.3781 21.321 29.4992 21.1826C29.6202 21.0442 29.6882 20.8566 29.6882 20.6609V19.8492C30.0926 19.7547 30.4773 19.5718 30.821 19.3106L31.3246 19.8864C31.4457 20.0249 31.61 20.1026 31.7812 20.1026C31.9524 20.1025 32.1166 20.0247 32.2377 19.8863C32.3588 19.7478 32.4268 19.56 32.4267 19.3643C32.4267 19.1685 32.3586 18.9807 32.2375 18.8423L31.7339 18.2666C31.9624 17.8736 32.1225 17.4338 32.2053 16.9714H32.9152C33.0864 16.9714 33.2505 16.8937 33.3716 16.7553C33.4926 16.6169 33.5606 16.4292 33.5606 16.2335C33.5606 16.0378 33.4926 15.8502 33.3716 15.7118C33.2505 15.5734 33.0864 15.4956 32.9152 15.4956H32.2053C32.1225 15.0333 31.9624 14.5935 31.7338 14.2005ZM29.0428 18.4472C28.6599 18.4472 28.2855 18.3174 27.9671 18.0741C27.6487 17.8309 27.4005 17.4852 27.254 17.0807C27.1075 16.6762 27.0691 16.2311 27.1438 15.8017C27.2185 15.3723 27.4029 14.9778 27.6737 14.6682C27.9445 14.3587 28.2895 14.1478 28.6651 14.0624C29.0407 13.977 29.43 14.0208 29.7838 14.1884C30.1376 14.3559 30.4399 14.6397 30.6527 15.0037C30.8655 15.3677 30.979 15.7957 30.979 16.2335C30.9784 16.8204 30.7742 17.3831 30.4113 17.7981C30.0483 18.2131 29.5561 18.4465 29.0428 18.4472Z" fill="#2B486A"/>
<path d="M29.043 8.85468C27.7665 8.85468 26.5187 9.28744 25.4573 10.0982C24.396 10.909 23.5688 12.0615 23.0803 13.4098C22.5918 14.7581 22.464 16.2418 22.713 17.6731C22.962 19.1045 23.5767 20.4193 24.4793 21.4512C25.3819 22.4832 26.5319 23.186 27.7839 23.4707C29.0358 23.7554 30.3335 23.6093 31.5128 23.0508C32.6921 22.4923 33.7001 21.5465 34.4093 20.3331C35.1184 19.1196 35.4969 17.693 35.4969 16.2336C35.495 14.2772 34.8144 12.4017 33.6045 11.0184C32.3945 9.63503 30.7541 8.8569 29.043 8.85468ZM29.043 22.1367C28.0218 22.1367 27.0235 21.7905 26.1745 21.1418C25.3254 20.4932 24.6636 19.5712 24.2728 18.4926C23.882 17.4139 23.7798 16.227 23.979 15.0819C24.1782 13.9368 24.67 12.885 25.392 12.0594C26.1141 11.2339 27.0341 10.6717 28.0357 10.4439C29.0372 10.2161 30.0754 10.333 31.0188 10.7798C31.9623 11.2266 32.7687 11.9832 33.336 12.954C33.9033 13.9247 34.2061 15.066 34.2061 16.2336C34.2046 17.7986 33.6601 19.2991 32.6922 20.4058C31.7242 21.5124 30.4119 22.1349 29.043 22.1367Z" fill="#2B486A"/>
<path d="M17.4257 7.37888H5.80848C5.63731 7.37888 5.47315 7.45662 5.35212 7.595C5.23108 7.73338 5.16309 7.92106 5.16309 8.11676V11.0683C5.16309 11.264 5.23108 11.4517 5.35212 11.5901C5.47315 11.7285 5.63731 11.8062 5.80848 11.8062H17.4257C17.5968 11.8062 17.761 11.7285 17.882 11.5901C18.0031 11.4517 18.0711 11.264 18.0711 11.0683V8.11676C18.0711 7.92106 18.0031 7.73338 17.882 7.595C17.761 7.45662 17.5968 7.37888 17.4257 7.37888ZM16.7803 10.3304H6.45388V8.85465H16.7803V10.3304Z" fill="#2B486A"/>
<path d="M8.39008 12.5441H5.80848C5.63731 12.5441 5.47315 12.6219 5.35212 12.7603C5.23108 12.8986 5.16309 13.0863 5.16309 13.282V15.4957C5.16309 15.6914 5.23108 15.8791 5.35212 16.0174C5.47315 16.1558 5.63731 16.2336 5.80848 16.2336H8.39008C8.56125 16.2336 8.72541 16.1558 8.84644 16.0174C8.96748 15.8791 9.03548 15.6914 9.03548 15.4957V13.282C9.03548 13.0863 8.96748 12.8986 8.84644 12.7603C8.72541 12.6219 8.56125 12.5441 8.39008 12.5441ZM7.74468 14.7578H6.45388V14.0199H7.74468V14.7578Z" fill="#2B486A"/>
<path d="M12.9079 12.5441H10.3263C10.1551 12.5441 9.99098 12.6219 9.86994 12.7603C9.74891 12.8986 9.68091 13.0863 9.68091 13.282V15.4957C9.68091 15.6914 9.74891 15.8791 9.86994 16.0174C9.99098 16.1558 10.1551 16.2336 10.3263 16.2336H12.9079C13.0791 16.2336 13.2432 16.1558 13.3643 16.0174C13.4853 15.8791 13.5533 15.6914 13.5533 15.4957V13.282C13.5533 13.0863 13.4853 12.8986 13.3643 12.7603C13.2432 12.6219 13.0791 12.5441 12.9079 12.5441ZM12.2625 14.7578H10.9717V14.0199H12.2625V14.7578Z" fill="#2B486A"/>
<path d="M17.4257 12.5441H14.8441C14.673 12.5441 14.5088 12.6219 14.3878 12.7603C14.2667 12.8986 14.1987 13.0863 14.1987 13.282V15.4957C14.1987 15.6914 14.2667 15.8791 14.3878 16.0174C14.5088 16.1558 14.673 16.2336 14.8441 16.2336H17.4257C17.5969 16.2336 17.7611 16.1558 17.8821 16.0174C18.0031 15.8791 18.0711 15.6914 18.0711 15.4957V13.282C18.0711 13.0863 18.0031 12.8986 17.8821 12.7603C17.7611 12.6219 17.5969 12.5441 17.4257 12.5441ZM16.7803 14.7578H15.4895V14.0199H16.7803V14.7578Z" fill="#2B486A"/>
<path d="M8.39008 16.9714H5.80848C5.63731 16.9714 5.47315 17.0491 5.35212 17.1875C5.23108 17.3259 5.16309 17.5136 5.16309 17.7093V19.9229C5.16309 20.1186 5.23108 20.3063 5.35212 20.4447C5.47315 20.5831 5.63731 20.6608 5.80848 20.6608H8.39008C8.56125 20.6608 8.72541 20.5831 8.84644 20.4447C8.96748 20.3063 9.03548 20.1186 9.03548 19.9229V17.7093C9.03548 17.5136 8.96748 17.3259 8.84644 17.1875C8.72541 17.0491 8.56125 16.9714 8.39008 16.9714ZM7.74468 19.185H6.45388V18.4472H7.74468V19.185Z" fill="#2B486A"/>
<path d="M12.9079 16.9714H10.3263C10.1551 16.9714 9.99098 17.0491 9.86994 17.1875C9.74891 17.3259 9.68091 17.5136 9.68091 17.7093V19.9229C9.68091 20.1186 9.74891 20.3063 9.86994 20.4447C9.99098 20.5831 10.1551 20.6608 10.3263 20.6608H12.9079C13.0791 20.6608 13.2432 20.5831 13.3643 20.4447C13.4853 20.3063 13.5533 20.1186 13.5533 19.9229V17.7093C13.5533 17.5136 13.4853 17.3259 13.3643 17.1875C13.2432 17.0491 13.0791 16.9714 12.9079 16.9714ZM12.2625 19.185H10.9717V18.4472H12.2625V19.185Z" fill="#2B486A"/>
<path d="M17.4257 16.9714H14.8441C14.673 16.9714 14.5088 17.0491 14.3878 17.1875C14.2667 17.3259 14.1987 17.5136 14.1987 17.7093V19.9229C14.1987 20.1186 14.2667 20.3063 14.3878 20.4447C14.5088 20.5831 14.673 20.6608 14.8441 20.6608H17.4257C17.5969 20.6608 17.7611 20.5831 17.8821 20.4447C18.0031 20.3063 18.0711 20.1186 18.0711 19.9229V17.7093C18.0711 17.5136 18.0031 17.3259 17.8821 17.1875C17.7611 17.0491 17.5969 16.9714 17.4257 16.9714ZM16.7803 19.185H15.4895V18.4472H16.7803V19.185Z" fill="#2B486A"/>
<path d="M8.39008 21.3987H5.80848C5.63731 21.3987 5.47315 21.4765 5.35212 21.6148C5.23108 21.7532 5.16309 21.9409 5.16309 22.1366V24.3503C5.16309 24.546 5.23108 24.7336 5.35212 24.872C5.47315 25.0104 5.63731 25.0882 5.80848 25.0882H8.39008C8.56125 25.0882 8.72541 25.0104 8.84644 24.872C8.96748 24.7336 9.03548 24.546 9.03548 24.3503V22.1366C9.03548 21.9409 8.96748 21.7532 8.84644 21.6148C8.72541 21.4765 8.56125 21.3987 8.39008 21.3987ZM7.74468 23.6124H6.45388V22.8745H7.74468V23.6124Z" fill="#2B486A"/>
<path d="M12.9079 21.3987H10.3263C10.1551 21.3987 9.99098 21.4765 9.86994 21.6148C9.74891 21.7532 9.68091 21.9409 9.68091 22.1366V24.3503C9.68091 24.546 9.74891 24.7336 9.86994 24.872C9.99098 25.0104 10.1551 25.0882 10.3263 25.0882H12.9079C13.0791 25.0882 13.2432 25.0104 13.3643 24.872C13.4853 24.7336 13.5533 24.546 13.5533 24.3503V22.1366C13.5533 21.9409 13.4853 21.7532 13.3643 21.6148C13.2432 21.4765 13.0791 21.3987 12.9079 21.3987ZM12.2625 23.6124H10.9717V22.8745H12.2625V23.6124Z" fill="#2B486A"/>
<path d="M17.4257 21.3987H14.8441C14.673 21.3987 14.5088 21.4765 14.3878 21.6148C14.2667 21.7532 14.1987 21.9409 14.1987 22.1366V24.3503C14.1987 24.546 14.2667 24.7336 14.3878 24.872C14.5088 25.0104 14.673 25.0882 14.8441 25.0882H17.4257C17.5969 25.0882 17.7611 25.0104 17.8821 24.872C18.0031 24.7336 18.0711 24.546 18.0711 24.3503V22.1366C18.0711 21.9409 18.0031 21.7532 17.8821 21.6148C17.7611 21.4765 17.5969 21.3987 17.4257 21.3987ZM16.7803 23.6124H15.4895V22.8745H16.7803V23.6124Z" fill="#2B486A"/>
</svg>
