<svg width="42" height="39" viewBox="0 0 42 39" fill="none" xmlns="http://www.w3.org/2000/svg">
<path d="M37.6522 0V2.78886H36.4236L34.0152 0H9.44123H9.42948V0.0149976L7.27003 2.77451V2.78886H3.65323V0H0V8.30095H3.65323V6.99312H7.27003V9.70506H8.48462V6.99312H10.9679V33.3584H8.48462V13.871H7.27003V34.747H10.9679V38.8823H36.474V6.99312H37.6522V8.30095H41.3055V0H37.6522ZM33.5075 1.38865L35.2595 3.41727V27.8038H32.7899V29.1925H35.2595V30.5809H12.1825V29.1925H29.1461V27.8038H12.1825V2.77322L11.0921 1.38865H33.5075ZM9.72188 1.72405L10.5604 2.78886H8.88851L9.72188 1.72405ZM1.21459 1.38865H2.43865V6.91231H1.21459V1.38865ZM3.65323 5.60448V4.17751H10.9679V5.60448H3.65323ZM12.1825 37.4936V31.9696H35.2595V37.4936H12.1825ZM36.474 4.17751H37.6522V5.60448H36.474V4.17751ZM40.0909 6.91231H38.8668V1.38865H40.0909V6.91231Z" fill="#2B486A"/>
<path d="M7.27002 11.0937H8.48461V12.4823H7.27002V11.0937Z" fill="#2B486A"/>
<path d="M30.3606 27.8038H31.5752V29.1925H30.3606V27.8038Z" fill="#2B486A"/>
</svg>
