<svg width="41" height="41" viewBox="0 0 41 41" fill="none" xmlns="http://www.w3.org/2000/svg">
<path d="M38.2669 9.17567H21.7508L26.5818 1.11353C26.7868 0.759904 26.7185 0.335585 26.3768 0.123426C26.0351 -0.0887338 25.6251 -0.0180421 25.4201 0.335585L20.4904 8.56245L14.8967 0.264809C14.6917 -0.0180421 14.2817 -0.0888181 13.9401 0.123341C13.6667 0.335501 13.5984 0.75982 13.8034 1.11345L19.2383 9.17559H2.73337C1.22999 9.17567 0 10.4486 0 12.0045V36.0496C0 37.6054 1.22999 38.8784 2.73337 38.8784H3.41667V40.2928C3.41667 40.7172 3.68997 41 4.09997 41C4.50996 41 4.78327 40.7172 4.78327 40.2928V38.8784H36.2167V40.2928C36.2167 40.7172 36.49 41 36.9 41C37.31 41 37.5833 40.7172 37.5833 40.2928V38.8784H38.2666C39.77 38.8784 41 37.6054 41 36.0496V12.0045C41.0002 10.4486 39.7702 9.17567 38.2669 9.17567ZM39.6336 36.0496C39.6336 36.8275 39.0186 37.464 38.2669 37.464H2.73337C1.98168 37.464 1.36668 36.8275 1.36668 36.0496V12.0045C1.36668 11.2266 1.98168 10.5901 2.73337 10.5901H38.2669C39.0186 10.5901 39.6336 11.2266 39.6336 12.0045V36.0496Z" fill="#2B486A"/>
<path d="M25.9667 12.0045H6.83326C4.57828 12.0045 2.73322 13.9139 2.73322 16.2478V31.8064C2.73322 34.1401 4.5782 36.0496 6.83326 36.0496H25.9667C28.2216 36.0496 30.0667 34.1402 30.0667 31.8064V16.2477C30.0667 13.914 28.2217 12.0045 25.9667 12.0045ZM28.7001 31.8063C28.7001 33.3622 27.4701 34.6351 25.9667 34.6351H6.83326C5.32989 34.6351 4.0999 33.3622 4.0999 31.8063V16.2477C4.0999 14.6918 5.32989 13.4189 6.83326 13.4189H25.9667C27.47 13.4189 28.7 14.6918 28.7 16.2477V31.8063H28.7001Z" fill="#2B486A"/>
<path d="M37.5834 15.5405H32.1167C31.7067 15.5405 31.4334 15.8234 31.4334 16.2477C31.4334 16.672 31.7067 16.9549 32.1167 16.9549H37.5834C37.9934 16.9549 38.2667 16.672 38.2667 16.2477C38.2667 15.8234 37.9934 15.5405 37.5834 15.5405Z" fill="#2B486A"/>
<path d="M37.5834 18.3694H32.1167C31.7067 18.3694 31.4334 18.6522 31.4334 19.0766C31.4334 19.5009 31.7067 19.7837 32.1167 19.7837H37.5834C37.9934 19.7837 38.2667 19.5009 38.2667 19.0766C38.2667 18.6522 37.9934 18.3694 37.5834 18.3694Z" fill="#2B486A"/>
<path d="M37.5834 21.1981H32.1167C31.7067 21.1981 31.4334 21.481 31.4334 21.9053C31.4334 22.3296 31.7067 22.6125 32.1167 22.6125H37.5834C37.9934 22.6125 38.2667 22.3296 38.2667 21.9053C38.2667 21.481 37.9934 21.1981 37.5834 21.1981Z" fill="#2B486A"/>
<path d="M37.5834 24.027H32.1167C31.7067 24.027 31.4334 24.3098 31.4334 24.7341V30.3918C31.4334 30.8162 31.7067 31.099 32.1167 31.099H37.5834C37.9934 31.099 38.2667 30.8162 38.2667 30.3918V24.7341C38.2668 24.3099 37.9934 24.027 37.5834 24.027ZM36.9001 29.6847H32.8001V25.4414H36.9001V29.6847Z" fill="#2B486A"/>
<path d="M8.405 15.0455L5.67171 17.8743C5.39841 18.1571 5.39841 18.5815 5.67171 18.8644C5.80841 19.0059 5.94502 19.0766 6.15002 19.0766C6.35501 19.0766 6.49171 19.0059 6.62832 18.8644L9.36168 16.0356C9.63499 15.7527 9.63499 15.3284 9.36168 15.0455C9.08838 14.7626 8.67838 14.7626 8.405 15.0455Z" fill="#2B486A"/>
<path d="M6.35501 20.7031L5.67171 21.4103C5.39841 21.6931 5.39841 22.1174 5.67171 22.4004C5.80841 22.5418 5.94502 22.6125 6.15002 22.6125C6.35501 22.6125 6.49171 22.5418 6.62832 22.4004L7.31162 21.6932C7.58492 21.4104 7.58492 20.986 7.31162 20.7031C7.03832 20.4203 6.62832 20.4203 6.35501 20.7031Z" fill="#2B486A"/>
<path d="M12.5051 14.3383L10.4551 16.4599C10.1818 16.7427 10.1818 17.167 10.4551 17.45C10.5918 17.5914 10.7284 17.6621 10.9334 17.6621C11.1384 17.6621 11.2751 17.5914 11.4117 17.45L13.4617 15.3284C13.735 15.0455 13.735 14.6212 13.4617 14.3383C13.1884 14.0553 12.7784 14.0554 12.5051 14.3383Z" fill="#2B486A"/>
<path d="M8.88337 18.3694C8.47338 18.3694 8.20007 18.6522 8.20007 19.0766C8.20007 19.5009 8.47338 19.7837 8.88337 19.7837C9.29337 19.7837 9.56668 19.5009 9.56668 19.0766C9.56668 18.6522 9.29337 18.3694 8.88337 18.3694Z" fill="#2B486A"/>
</svg>
