<svg width="41" height="39" viewBox="0 0 41 39" fill="none" xmlns="http://www.w3.org/2000/svg">
<path d="M20.5001 24.5333C18.9968 24.5333 17.7668 25.6954 17.7668 27.1158C17.7668 28.5361 18.9968 29.6982 20.5001 29.6982C22.0034 29.6982 23.2334 28.5361 23.2334 27.1158C23.2334 25.6954 22.0034 24.5333 20.5001 24.5333ZM20.5001 28.407C19.7484 28.407 19.1334 27.826 19.1334 27.1158C19.1334 26.4056 19.7484 25.8245 20.5001 25.8245C21.2518 25.8245 21.8668 26.4056 21.8668 27.1158C21.8668 27.826 21.2518 28.407 20.5001 28.407Z" fill="#2B486A"/>
<path d="M20.5682 19.433C18.3816 19.433 16.3315 20.2077 14.7599 21.6926C14.6232 21.8218 14.5549 21.9508 14.5549 22.1445C14.5549 22.3382 14.6232 22.4674 14.7599 22.5964L16.6732 24.4041C16.8099 24.5333 16.9465 24.5978 17.1515 24.5978C17.2882 24.5978 17.4932 24.4687 17.6299 24.4041C18.3816 23.6294 19.4066 23.242 20.4999 23.242C21.5932 23.242 22.6182 23.6294 23.5066 24.4041C23.7799 24.6624 24.1899 24.6624 24.4633 24.4041L26.3766 22.5964C26.5133 22.4673 26.5816 22.3382 26.5816 22.1445C26.5816 21.9508 26.5133 21.8217 26.3766 21.6926C24.8049 20.2077 22.7549 19.433 20.5682 19.433ZM23.8483 23.0484C22.8916 22.3382 21.7299 21.9508 20.4999 21.9508C19.2699 21.9508 18.1082 22.3382 17.1516 23.0484L16.1949 22.1445C17.4249 21.1761 18.9282 20.6596 20.4999 20.6596C22.0716 20.6596 23.5749 21.1761 24.8049 22.1445L23.8483 23.0484Z" fill="#2B486A"/>
<path d="M20.5 14.2035C16.8783 14.2035 13.4616 15.5592 10.865 18.0126C10.5916 18.2708 10.5916 18.6582 10.865 18.9165L12.7783 20.7242C12.915 20.8533 13.0516 20.9179 13.2566 20.9179C13.4616 20.9179 13.5983 20.8533 13.7349 20.7242C15.5799 19.0456 17.9716 18.0771 20.4999 18.0771C23.0282 18.0771 25.4882 19.0456 27.2649 20.7242C27.4016 20.8533 27.5382 20.9179 27.7432 20.9179C27.9482 20.9179 28.0849 20.8533 28.2215 20.7242L30.1348 18.9165C30.4081 18.6583 30.4081 18.2709 30.1348 18.0126C27.6066 15.5592 24.1216 14.2035 20.5 14.2035ZM27.7433 19.3684C25.7616 17.6898 23.165 16.786 20.5 16.786C17.835 16.786 15.3066 17.6898 13.2566 19.3684L12.3 18.4645C14.555 16.5277 17.425 15.4947 20.5 15.4947C23.575 15.4947 26.445 16.5277 28.7 18.4645L27.7433 19.3684Z" fill="#2B486A"/>
<path d="M34.03 14.3326C30.4084 10.9108 25.625 9.0386 20.5 9.0386C15.375 9.0386 10.5917 10.9109 7.03835 14.3972C6.76505 14.6555 6.76505 15.0428 7.03835 15.3011L8.95166 17.1088C9.22497 17.367 9.63497 17.367 9.90835 17.1088C12.71 14.3972 16.4684 12.9123 20.5 12.9123C24.5317 12.9123 28.29 14.3972 31.16 17.0442C31.2967 17.1734 31.4334 17.2379 31.6384 17.2379C31.775 17.2379 31.98 17.1734 32.1167 17.1087L34.03 15.2364C34.3034 14.9782 34.3034 14.5908 34.03 14.3326ZM31.57 15.6884C28.5634 13.0414 24.6684 11.621 20.5 11.621C16.3317 11.621 12.4367 13.0414 9.36174 15.6884L8.40505 14.7845C11.7534 11.9438 15.99 10.3298 20.5 10.3298C25.01 10.3298 29.2467 11.9438 32.5267 14.7845L31.57 15.6884Z" fill="#2B486A"/>
<path d="M20.5 0C9.225 0 0 8.71579 0 19.3684C0 30.0211 9.225 38.7368 20.5 38.7368C31.775 38.7368 41 30.0211 41 19.3684C41 8.71579 31.775 0 20.5 0ZM20.5 37.4456C9.9767 37.4456 1.36669 29.3109 1.36669 19.3684C1.36669 9.42599 9.9767 1.29125 20.5 1.29125C31.0233 1.29125 39.6333 9.42599 39.6333 19.3684C39.6333 29.3109 31.0233 37.4456 20.5 37.4456Z" fill="#2B486A"/>
</svg>
