<svg width="42" height="45" fill="none">
  <path d="M39 24V7c0-4-3-7-7-7-3 0-5 3-5 6-2 1-3 2-3 4l1 1h5l1-1c0-2-1-3-3-4 0-2 2-4 4-4 3 0 5 2 5 5v17H16c0-2-1-4-3-4l-3-1-3 2-1-1c-2 0-4 2-4 4l-2 2 2 2h1l2 9c0 2 2 4 4 4h1l-1 2v1h1l1-3h20l1 3h1v-1l-1-2c2 0 4-2 5-4l1-9h1l2-2-2-2zM30 9h-4l2-1 2 1zM6 22l1 1h1l2-3 2 2h1l2 2H4l2-2zm29 14c0 2-1 3-3 3H10c-2 0-3-1-4-3l-2-8h33l-2 8zm4-9H2l-1-1 1-1h37l1 1-1 1z" fill="#2B486A"/>
  <path d="M25 15v-2h-1v1l1 1zM25 18v-1-1l-1 1 1 1zM25 21v-1-1l-1 1 1 1zM28 15v-2h-1v1l1 1zM27 17l1 1v-1-1l-1 1zM27 20l1 1v-1-1l-1 1zM30 15l1-1v-1h-1v2zM30 17v1l1-1-1-1v1zM30 20v1l1-1-1-1v1z" fill="#2B486A"/>
</svg>
