<svg width="34" height="48" fill="none">
  <path d="M8 31c-2 0-3-2-2-4l-1-4-2 7 1 1h2v14l2 2 2-2V32l-2-1zM11 8c2 0 4-2 4-4s-2-4-4-4-4 2-4 4 2 4 4 4zM8 17v-3L6 9l-2 3-4 5 1 3 4 1 1-2 1-1-2-1 2-3-1 3h2zM8 9l1 5h3l2-5H8z" fill="#2B486A"/>
  <path d="M11 25v-6l-2-1-2 2c-2 2 1 5 0 7s0 3 1 3l3 1 1-1-1-5z" fill="#2B486A"/>
  <path d="M33 5V4h-2l-2 3 1-4-5-1-1 1 1 11-1 1-4 2-1-4-4-4-1 5a544 544 0 001 13h-2l1 2c0 2-1 3-3 3v13c0 1 1 2 3 2l2-2V31h1c1 0 2 0 1-1a1827 1827 0 01-1-10l3 1 3-1-1 4 1 1 1-1 1-5 2-1a2 2 0 00-1-3v-1l7-9z" fill="#2B486A"/>
</svg>
