<svg width="42" height="62" fill="none">
  <path d="M41 26a15 15 0 000-1 16 16 0 000-1l-2-3a14 14 0 000-1 14 14 0 00-1-1l-7-5-5 1c-8 3-15 4-21 4H4c-2 0-4 2-4 5v9c0 3 2 5 4 5h4l13 2-3 12c-2 4 0 8 3 9h2c3 0 5-1 6-4l6-17 3-3c2-3 4-6 3-11zm-1 1l-2 8a14 14 0 010-14l2 6zM4 36c-1 0-3-1-3-3v-9c0-2 2-3 3-3h2v15H4zm21 5h1a11 11 0 004 1l-2 5-3 1-1-2v-1l1-4zm3 15c-1 3-4 5-6 4-3-1-4-5-3-8l4-12 1 1-1 3v3l2 2 1 1c2 0 3-1 3-3l2-5 2-1-5 15zm6-17a10 10 0 01-3 1h-2a10 10 0 01-3-1h-1L8 36H7V21c6-1 12-2 19-5h5c2 0 4 2 6 4l-3 6c0 4 1 8 3 11l-3 2zM39 4h-8-1l1 1h8V4zM37 7h-5v2h5l1-1-1-1zM32 1h6l-1-1h-5v1z" fill="#2B486A"/>
</svg>
