<svg width="31" height="42" fill="none">
  <path d="M19 12l1-1h1l1 1-1 1h-1l-1-1zm-3 1l1-1-1-1-1 1 1 1zm15-5v32l-2 2H2l-2-2V8l2-2a2 2 0 011-2L2 2l2-2h7a2 2 0 012 3h3a2 2 0 012 3h11l2 2zM4 2v1h7V2H4zm0 3v1h12V5H4zm25 3H2v32h27V8zm-4 3h-1l-1 1 1 1h1l1-1-1-1zm-9 8l-1 1 1 1a6 6 0 015 6l1 1 1-1-2-5c-2-2-3-3-5-3zM6 13h5v-1-1H6l-1 1 1 1zm20 14c0 6-5 10-10 10-6 0-11-4-11-10s5-11 11-11c5 0 10 5 10 11zm-2 0c0-5-4-9-8-9-5 0-9 4-9 9s4 9 9 9c4 0 8-4 8-9zm-8 6l-5-2c-1-1-2-3-1-4l-1-1-1 1 2 5 6 2v-1z" fill="#2B486A"/>
</svg>
