<svg width="41" height="41" fill="none">
  <path d="M38 9H22l5-8-1-1h-1l-5 9-5-9h-1v1l5 8H3c-2 0-3 1-3 3v24c0 2 1 3 3 3v1l1 1 1-1v-1h31v1l1 1 1-1v-1c2 0 3-1 3-3V12c0-2-1-3-3-3zm2 27l-2 1H3l-2-1V12l2-1h35l2 1v24z" fill="#2B486A"/>
  <path d="M26 12H7c-2 0-4 2-4 4v16c0 2 2 4 4 4h19c2 0 4-2 4-4V16c0-2-2-4-4-4zm3 20l-3 3H7c-2 0-3-2-3-3V16c0-1 1-3 3-3h19l3 3v16zM38 16h-6-1l1 1h6v-1zM38 18h-6l-1 1 1 1h6v-1-1zM38 21h-6l-1 1 1 1h6v-1-1zM38 24h-6l-1 1v5l1 1h6v-6-1zm-1 6h-4v-5h4v5z" fill="#2B486A"/>
  <path d="M8 15l-2 3v1h1l2-3v-1H8zM6 21v2l1-1v-1H6zM13 14l-3 2v1l1 1v-1l2-2v-1zM9 18l-1 1 1 1 1-1-1-1z" fill="#2B486A"/>
</svg>
