<svg width="41" height="39" fill="none">
  <path d="M21 25c-2 0-3 1-3 2 0 2 1 3 3 3 1 0 2-1 2-3l-2-2zm0 3l-2-1 2-1 1 1-1 1zM21 19c-3 0-5 1-6 3v1l2 1v1l1-1 2-1 4 1c0 1 0 1 0 0l2-1 1-1h-1c-1-2-3-3-5-3zm3 4a6 6 0 00-7 0l-1-1a7 7 0 019 0l-1 1z" fill="#2B486A"/>
  <path d="M21 14c-4 0-8 2-10 4v1l2 2h1a10 10 0 0113 0h1l2-2v-1c-2-2-6-4-9-4zm7 5l-7-2-8 2-1-1c3-1 5-3 9-3 3 0 5 2 8 3l-1 1z" fill="#2B486A"/>
  <path d="M34 14c-4-3-8-5-13-5-6 0-10 2-14 5v1l2 2h1c3-3 6-4 11-4 4 0 7 1 10 4h1l2-2v-1zm-2 2c-3-3-7-4-11-4-5 0-9 1-12 4l-1-1a19 19 0 0125 0l-1 1z" fill="#2B486A"/>
  <path d="M21 0C9 0 0 9 0 19c0 11 9 20 21 20 11 0 20-9 20-20C41 9 32 0 21 0zm0 37C10 37 1 29 1 19S10 1 21 1c10 0 19 8 19 18s-9 18-19 18z" fill="#2B486A"/>
</svg>
